<svg xmlns="http://www.w3.org/2000/svg" viewBox="0 0 24 24" fill="none" role="img" aria-label="Form Builder">
  <!-- code braces: fixed brand hue -->
  <g stroke="#7f98f5" stroke-width="1.6" stroke-linecap="round" stroke-linejoin="round">
    <path d="M8.5 4.5C6.8 4.5 6.8 6 6.8 7.8C6.8 10.2 5.6 10.8 4.4 12C5.6 13.2 6.8 13.8 6.8 16.2C6.8 18 6.8 19.5 8.5 19.5"/>
    <path d="M15.5 4.5C17.2 4.5 17.2 6 17.2 7.8C17.2 10.2 18.4 10.8 19.6 12C18.4 13.2 17.2 13.8 17.2 16.2C17.2 18 17.2 19.5 15.5 19.5"/>
  </g>
  <!-- form field rows: adapt to surrounding text color -->
  <g fill="currentColor">
    <rect x="9" y="7.6"  width="6"   height="1.7" rx="0.85"/>
    <rect x="9" y="11.15" width="3.9" height="1.7" rx="0.85"/>
    <rect x="9" y="14.7" width="4.9" height="1.7" rx="0.85"/>
  </g>
</svg>
